<?xml version="1.0" encoding="UTF-8" standalone="no"?>
<!-- Created with Inkscape (http://www.inkscape.org/) -->

<svg
   xmlns:dc="http://purl.org/dc/elements/1.1/"
   xmlns:cc="http://creativecommons.org/ns#"
   xmlns:rdf="http://www.w3.org/1999/02/22-rdf-syntax-ns#"
   xmlns:svg="http://www.w3.org/2000/svg"
   xmlns="http://www.w3.org/2000/svg"
   xmlns:xlink="http://www.w3.org/1999/xlink"
   xmlns:sodipodi="http://sodipodi.sourceforge.net/DTD/sodipodi-0.dtd"
   xmlns:inkscape="http://www.inkscape.org/namespaces/inkscape"
   width="834.92798"
   height="829.94055"
   viewBox="0 0 220.91 219.58844"
   version="1.1"
   id="svg4502"
   inkscape:version="0.92.2 5c3e80d, 2017-08-06"
   sodipodi:docname="onesvg.svg">
  <defs
     id="defs4496">
    <linearGradient
       id="e969c1f8-c53e-49bb-af82-32734eaa9cfa"
       x1="28.76"
       y1="305.07001"
       x2="28.76"
       y2="212.89"
       gradientTransform="matrix(0,-1,-1,0,931.32,376.98)"
       gradientUnits="userSpaceOnUse">
      <stop
         offset="0"
         stop-color="gray"
         stop-opacity="0.25"
         id="stop2" />
      <stop
         offset="0.54"
         stop-color="gray"
         stop-opacity="0.12"
         id="stop4" />
      <stop
         offset="1"
         stop-color="gray"
         stop-opacity="0.1"
         id="stop6" />
    </linearGradient>
    <linearGradient
       id="ea046c4d-22ef-4a44-b404-ca1d35daf76d"
       x1="-12.78"
       y1="348.28"
       x2="-12.78"
       y2="256.10001"
       gradientTransform="matrix(-0.26458333,0,0,0.26458333,625.80379,-501.73691)"
       xlink:href="#e969c1f8-c53e-49bb-af82-32734eaa9cfa" />
    <linearGradient
       id="a2efda15-530d-45aa-b3cd-49d05531735a"
       x1="-251.56"
       y1="214.87"
       x2="-251.56"
       y2="122.69"
       gradientTransform="matrix(0,-0.26458333,-0.26458333,0,732.95463,254.05564)"
       xlink:href="#e969c1f8-c53e-49bb-af82-32734eaa9cfa" />
    <linearGradient
       id="094cca5d-27c3-47fb-8920-3b7298d459bd"
       x1="-38.599998"
       y1="396.54001"
       x2="-38.599998"
       y2="304.35999"
       gradientTransform="matrix(0,-0.26458333,-0.26458333,0,732.96224,254.05719)"
       xlink:href="#e969c1f8-c53e-49bb-af82-32734eaa9cfa" />
    <linearGradient
       id="140a85c5-dcaa-41a5-bbcf-36a604c1c882"
       x1="5.0999999"
       y1="303.89001"
       x2="5.0999999"
       y2="211.71001"
       gradientTransform="matrix(0,-0.26458333,-0.26458333,0,732.96071,254.06235)"
       xlink:href="#e969c1f8-c53e-49bb-af82-32734eaa9cfa" />
    <linearGradient
       id="e09d3dbe-6def-45ce-bc92-f1e4ec85f07d"
       x1="8.0200005"
       y1="379.51001"
       x2="8.0200005"
       y2="287.32999"
       gradientTransform="matrix(-0.26458333,0,0,0.26458333,538.4677,-569.81466)"
       xlink:href="#e969c1f8-c53e-49bb-af82-32734eaa9cfa" />
    <linearGradient
       id="bcc8fcf0-1b1e-40bd-bc5b-91eb65ebeff2"
       x1="222.55"
       y1="344.87"
       x2="222.55"
       y2="252.69"
       gradientTransform="matrix(-0.26458333,0,0,0.26458333,538.46636,-569.81337)"
       xlink:href="#e969c1f8-c53e-49bb-af82-32734eaa9cfa" />
    <linearGradient
       id="7026b8b1-cea2-4061-af6f-029e76fb3e92"
       x1="-232.10001"
       y1="207.78"
       x2="-232.10001"
       y2="115.6"
       gradientTransform="matrix(-0.26458333,0,0,0.26458333,613.95782,-506.31501)"
       xlink:href="#e969c1f8-c53e-49bb-af82-32734eaa9cfa" />
    <linearGradient
       id="5f629113-c274-4419-b6ca-105eac5d4e52"
       x1="81.080002"
       y1="150.19"
       x2="81.080002"
       y2="86.040001"
       gradientTransform="matrix(-0.26458333,0,0,0.26458333,625.80096,-501.73711)"
       xlink:href="#e969c1f8-c53e-49bb-af82-32734eaa9cfa" />
    <linearGradient
       id="c2ef43ed-fda2-43ff-bd84-ecc107fb70b7"
       x1="516.73999"
       y1="89.410004"
       x2="516.73999"
       y2="25.26"
       gradientTransform="matrix(-0.26458333,0,0,0.26458333,625.80066,-501.73447)"
       xlink:href="#e969c1f8-c53e-49bb-af82-32734eaa9cfa" />
    <linearGradient
       id="127fb363-6911-40f5-b8ae-4e9fbcd2cde8"
       x1="-103.84"
       y1="299.14999"
       x2="-103.84"
       y2="235"
       gradientTransform="matrix(-0.26458333,0,0,0.26458333,625.80342,-501.73644)"
       xlink:href="#e969c1f8-c53e-49bb-af82-32734eaa9cfa" />
    <linearGradient
       id="30b9b037-13cf-442c-b7db-08ecd3a25147"
       x1="5.8499999"
       y1="100.35"
       x2="5.8499999"
       y2="36.200001"
       gradientTransform="matrix(-0.26458333,0,0,0.26458333,625.80352,-501.73711)"
       xlink:href="#e969c1f8-c53e-49bb-af82-32734eaa9cfa" />
    <linearGradient
       id="3f302154-f399-4639-adea-16a823494a16"
       x1="460.42999"
       y1="-26.58"
       x2="460.42999"
       y2="-90.720001"
       gradientTransform="matrix(-0.26458333,0,0,0.26458333,625.80076,-501.73748)"
       xlink:href="#e969c1f8-c53e-49bb-af82-32734eaa9cfa" />
    <linearGradient
       id="3ada4877-fd8b-49b1-a88c-9dc9f5ba336c"
       x1="-53.790001"
       y1="240.48"
       x2="-53.790001"
       y2="148.3"
       gradientTransform="matrix(0,-0.26458333,-0.26458333,0,732.96008,254.05864)"
       xlink:href="#e969c1f8-c53e-49bb-af82-32734eaa9cfa" />
    <linearGradient
       gradientTransform="matrix(0.26458333,0,0,0.26458333,230.05125,-703.63224)"
       id="d51fede2-78e8-4620-b3d8-713c35bf1f26"
       x1="417.01001"
       y1="548.48999"
       x2="417.01001"
       y2="166.82001"
       xlink:href="#e969c1f8-c53e-49bb-af82-32734eaa9cfa" />
    <linearGradient
       id="1006e8ff-8602-4633-86d3-6de2a9ceacc2"
       x1="2864.8899"
       y1="548.48999"
       x2="2864.8899"
       y2="166.82001"
       gradientTransform="matrix(-0.26458333,0,0,0.26458333,1176.2012,-703.63224)"
       xlink:href="#e969c1f8-c53e-49bb-af82-32734eaa9cfa" />
    <linearGradient
       gradientTransform="matrix(0.26458333,0,0,0.26458333,230.05125,-703.63224)"
       id="fbbe768f-3ed7-4776-9e16-963371c4c4e8"
       x1="540.33002"
       y1="551.53003"
       x2="540.33002"
       y2="551.26001"
       xlink:href="#e969c1f8-c53e-49bb-af82-32734eaa9cfa" />
    <linearGradient
       gradientTransform="matrix(0.26458333,0,0,0.26458333,230.05125,-703.63224)"
       id="34e30e13-4b6f-4fce-83d2-4daee813bb86"
       x1="523.97998"
       y1="692.77002"
       x2="523.97998"
       y2="292.62"
       xlink:href="#e969c1f8-c53e-49bb-af82-32734eaa9cfa" />
  </defs>
  <sodipodi:namedview
     id="base"
     pagecolor="#ffffff"
     bordercolor="#666666"
     borderopacity="1.0"
     inkscape:pageopacity="0.0"
     inkscape:pageshadow="2"
     inkscape:zoom="0.70710678"
     inkscape:cx="368.02476"
     inkscape:cy="377.84891"
     inkscape:document-units="mm"
     inkscape:current-layer="layer1"
     showgrid="false"
     inkscape:pagecheckerboard="false"
     units="px"
     fit-margin-top="0"
     fit-margin-left="0"
     fit-margin-right="0"
     fit-margin-bottom="0"
     viewbox-width="834.92798"
     inkscape:window-width="1176"
     inkscape:window-height="884"
     inkscape:window-x="465"
     inkscape:window-y="0"
     inkscape:window-maximized="0" />
  <metadata
     id="metadata4499">
    <rdf:RDF>
      <cc:Work
         rdf:about="">
        <dc:format>image/svg+xml</dc:format>
        <dc:type
           rdf:resource="http://purl.org/dc/dcmitype/StillImage" />
        <dc:title></dc:title>
      </cc:Work>
    </rdf:RDF>
  </metadata>
  <g
     inkscape:label="Layer 1"
     inkscape:groupmode="layer"
     id="layer1"
     transform="translate(-264.85679,694.35611)">
    <path
       inkscape:connector-curvature="0"
       style="display:inline;fill:url(#d51fede2-78e8-4620-b3d8-713c35bf1f26);stroke-width:0.26458332"
       d="m 375.86842,-584.69145 a 17.025937,17.025937 0 0 0 -5.10911,-10.55158 c -3.47662,-3.37344 -9.62289,-7.84754 -19.84374,-11.16277 -18.66636,-6.0616 -25.69634,-11.39296 -33.93811,-25.92917 l -7.27339,-17.93875 v 8.24177 l -4.6064,-17.4625 c 0,0 -2.0611,18.54465 4.23333,33.3375 0,0 -3.15118,2.667 0,7.2734 0,0 -7.51416,-1.21179 -1.21179,11.15219 l 5.334,7.75758 c 0,0 -5.334,2.42358 2.18281,10.90877 l 4.37357,4.11427 c 0,0 -10.42459,3.39461 3.3946,15.51517 0,0 17.69533,14.30337 31.99871,10.18117 12.52802,-3.6195 21.70377,-12.61534 20.46552,-25.43705 z"
       id="path349" />
    <path
       inkscape:connector-curvature="0"
       style="display:inline;fill:#dfe5ee;stroke-width:0.26458332"
       d="m 375.00588,-585.28147 a 16.613187,16.613187 0 0 0 -4.99004,-10.29493 c -3.39196,-3.29142 -9.39007,-7.65705 -19.34898,-10.8929 -18.21392,-5.91344 -25.07192,-11.1125 -33.11525,-25.31004 l -7.09613,-17.50219 v 8.04333 l -4.49791,-17.03123 c 0,0 -2.01084,18.09486 4.13808,32.52259 0,0 -3.07446,2.60085 0,7.09612 0,0 -7.3316,-1.18268 -1.18269,10.87967 l 5.20436,7.56973 c 0,0 -5.20436,2.36537 2.11666,10.64419 l 4.25715,4.02166 c 0,0 -10.17058,3.31259 3.31258,15.13682 0,0 17.26671,13.95412 31.22084,9.9351 12.23697,-3.51896 21.19047,-12.29519 19.98133,-24.81792 z"
       id="path351" />
    <path
       inkscape:connector-curvature="0"
       style="display:inline;fill:#ebf1f6;stroke-width:0.26458332"
       d="m 321.4595,-612.73728 -13.71864,-33.82433 c 0,0 1.41816,16.08402 4.96623,22.94466 0,0 -4.49792,-3.07445 1.89177,9.93511 0,0 -13.71865,-10.40606 0,10.64419 l 5.43983,5.20435 c 0,0 -9.66523,-4.14073 -4.66989,4.23333 a 23.666979,23.666979 0 0 0 7.64645,7.81315 l 4.11957,2.62202 c 0,0 -13.71865,-4.25715 -4.73075,8.27881 0,0 9.69698,9.22602 15.84854,9.93511 0,0 -15.84854,-10.17059 -12.06236,-13.95413 3.78619,-3.78354 14.19225,2.83104 14.19225,2.83104 0,0 -18.44939,-12.77143 -17.50218,-16.08402 0.9472,-3.31258 9.9351,4.25715 9.9351,4.25715 0,0 -18.923,-18.21392 -17.97579,-21.05025 0.94721,-2.83634 1.41817,-3.07446 7.56973,3.07446 0,0 -8.04334,-11.35327 -6.86065,-13.00957 1.18269,-1.65629 5.91079,6.14892 5.91079,6.14892 z"
       id="path353" />
    <path
       inkscape:connector-curvature="0"
       style="display:inline;fill:#ebf1f6;stroke-width:0.26458332"
       d="m 368.2934,-571.58134 c 0,0 13.22916,-15.61042 -12.53596,-24.60625 a 130.43958,130.43958 0 0 1 -18.98914,-8.26029 46.661917,46.661917 0 0 1 -22.79915,-28.27602 c -0.63765,-2.24632 -0.93133,-3.93965 -0.55298,-4.38415 0,0 7.80521,20.81477 24.12735,28.14637 l 21.52386,8.04334 c 0,0 24.60096,9.23396 9.22602,29.337 z"
       id="path355" />
    <path
       inkscape:connector-curvature="0"
       style="fill:url(#1006e8ff-8602-4633-86d3-6de2a9ceacc2);stroke-width:0.26458332"
       d="m 382.71584,-584.69145 a 17.025937,17.025937 0 0 1 5.1091,-10.55158 c 3.47662,-3.37344 9.6229,-7.84754 19.84375,-11.16277 18.66635,-6.0616 25.69633,-11.39296 33.9381,-25.92917 l 7.25488,-17.94933 v 8.24177 l 4.60639,-17.4625 c 0,0 2.06111,18.54465 -4.23333,33.3375 0,0 3.15119,2.667 0,7.2734 0,0 7.51417,-1.2118 1.21179,11.15218 l -5.334,7.75759 c 0,0 5.33665,2.42623 -2.18546,10.91671 l -4.36297,4.1222 c 0,0 10.42458,3.39461 -3.39461,15.51517 0,0 -17.69533,14.30338 -31.99871,10.18117 -12.51743,-3.62479 -21.69583,-12.62063 -20.45493,-25.44234 z"
       id="path357" />
    <path
       inkscape:connector-curvature="0"
       style="fill:#dfe5ee;stroke-width:0.26458332"
       d="m 383.57573,-585.28147 a 16.613187,16.613187 0 0 1 4.98475,-10.29493 c 3.39196,-3.29142 9.39006,-7.65705 19.34898,-10.8929 18.21392,-5.91344 25.07192,-11.1125 33.11525,-25.31004 l 7.09613,-17.50219 v 8.04333 l 4.49791,-17.03123 c 0,0 2.01084,18.09486 -4.13808,32.52259 0,0 3.07446,2.60085 0,7.09612 0,0 7.3316,-1.18268 1.18269,10.87967 l -5.20436,7.56973 c 0,0 5.20436,2.36537 -2.11666,10.64419 l -4.25715,4.02166 c 0,0 10.17058,3.31259 -3.31258,15.13682 0,0 -17.26671,13.95412 -31.22084,9.9351 -12.23168,-3.51896 -21.18518,-12.29519 -19.97604,-24.81792 z"
       id="path359" />
    <path
       inkscape:connector-curvature="0"
       style="fill:#ebf1f6;stroke-width:0.26458332"
       d="m 437.12475,-612.73728 13.71865,-33.82433 c 0,0 -1.41817,16.08402 -4.96623,22.94466 0,0 4.49792,-3.07445 -1.89177,9.93511 0,0 13.71864,-10.40606 0,10.64419 l -5.44248,5.2017 c 0,0 9.66523,-4.14073 4.66989,4.23334 a 23.666979,23.666979 0 0 1 -7.64645,7.81314 l -4.11957,2.62202 c 0,0 13.71071,-4.25979 4.73075,8.27617 0,0 -9.69698,9.22602 -15.84854,9.9351 0,0 15.84854,-10.17058 12.06236,-13.95412 -3.78619,-3.78354 -14.19225,2.83898 -14.19225,2.83898 0,0 18.44939,-12.77144 17.50218,-16.08402 -0.9472,-3.31259 -9.9351,4.25714 -9.9351,4.25714 0,0 18.923,-18.21391 17.97579,-21.05025 -0.94721,-2.83633 -1.41817,-3.07445 -7.56973,3.07446 0,0 8.04334,-11.35327 6.86065,-13.00956 -1.18269,-1.65629 -5.90815,6.14627 -5.90815,6.14627 z"
       id="path361" />
    <path
       inkscape:connector-curvature="0"
       style="fill:#ebf1f6;stroke-width:0.26458332"
       d="m 390.29086,-571.58134 c 0,0 -13.22917,-15.61042 12.53595,-24.60625 a 130.43958,130.43958 0 0 0 18.98915,-8.26029 46.661917,46.661917 0 0 0 22.7965,-28.27602 c 0.63765,-2.24632 0.93133,-3.93965 0.55298,-4.38415 0,0 -7.80521,20.81477 -24.12735,28.14637 l -21.52386,8.04334 c 0,0 -24.59831,9.23396 -9.22337,29.337 z"
       id="path363" />
    <path
       inkscape:connector-curvature="0"
       style="fill:url(#fbbe768f-3ed7-4776-9e16-963371c4c4e8);stroke-width:0.26458332"
       d="m 372.86804,-557.77803 a 0.24341667,0.24341667 0 0 0 0.2884,0.037 0.98425,0.98425 0 0 1 -0.2884,-0.037 z"
       id="path365" />
    <path
       inkscape:connector-curvature="0"
       style="fill:url(#34e30e13-4b6f-4fce-83d2-4daee813bb86);stroke-width:0.26458332"
       d="m 405.17367,-610.28459 c -0.56886,-0.16669 -1.38377,-0.43656 -2.36273,-0.77523 a 12.401021,12.401021 0 0 0 2.19075,-4.41325 l -0.0847,0.0317 c 0.0291,-0.0979 0.0582,-0.19579 0.0847,-0.29369 -1.87854,0.762 -3.96875,-0.52917 -5.29167,-2.19075 -1.32291,-1.66158 -2.2225,-3.72004 -3.67241,-5.24933 a 16.790458,16.790458 0 0 0 -1.94734,-1.67481 c -0.42862,-0.33073 -0.889,-0.67469 -1.41023,-0.69057 -0.84666,-0.0238 -1.50812,0.79375 -2.32568,1.05834 a 3.175,3.175 0 0 1 -1.6219,-0.0609 c -2.10079,-0.48154 -4.13015,-1.37319 -6.26533,-1.60602 a 7.3421875,7.3421875 0 0 0 -3.3999,0.38365 c -1.07685,0.4101 -1.56898,1.22237 -2.4421,1.87589 -0.93927,0.70115 -2.80988,0.68527 -3.91584,0.80963 a 28.045833,28.045833 0 0 1 -4.04548,0.16669 9.4694375,9.4694375 0 0 0 -2.32833,0.0873 c -1.60602,0.35189 -2.91041,1.62983 -4.10368,2.8575 a 2.1166667,2.1166667 0 0 0 -0.67734,1.05833 1.3414375,1.3414375 0 0 0 0,0.3519 2.2833542,2.2833542 0 0 0 0.1614,0.93398 12.345458,12.345458 0 0 0 1.55839,3.09827 c 0.49213,0.70379 1.05834,1.36789 1.34409,2.20133 a 4.270375,4.270375 0 0 1 0.20637,1.26735 9.2207292,9.2207292 0 0 1 -0.14287,1.36261 17.131771,17.131771 0 0 1 -1.04246,3.62744 c -0.26458,0.61912 -0.55033,1.23825 -0.60854,1.91558 a 3.0294792,3.0294792 0 0 0 0,0.40481 c -0.0794,2.09286 2.032,3.59834 2.43945,5.67796 a 3.3919583,3.3919583 0 0 1 0.0582,0.52917 c -0.045,1.29646 -0.79375,2.56646 -1.87325,3.06652 0.0953,0.037 0.19315,0.0688 0.29105,0.10319 a 2.6458333,2.6458333 0 0 1 -0.29105,0.15875 c 0.19844,0.0767 0.40217,0.14022 0.60855,0.19843 a 14.136687,14.136687 0 0 0 -3.08505,3.7809 c -3.64595,6.81567 -28.46916,20.18771 -28.46916,20.18771 0,0 0.14023,0.0767 0.36777,0.20902 l -0.29898,0.19314 c -2.14842,1.42875 -7.19402,5.59859 -2.64583,10.86909 0,0 3.56129,-5.61711 6.05366,-8.01159 0.11113,-0.10583 0.21961,-0.20637 0.32809,-0.29898 a 0.72760417,0.72760417 0 0 1 0.0952,0.5768 l 16.33008,-9.17575 c 0,0 5.80231,-4.064 7.42156,-4.98211 0.55827,-0.31485 1.97908,-1.19062 3.68036,-1.5875 l -0.1905,0.0794 a 7.4533125,7.4533125 0 0 1 1.87324,-0.26459 c 2.8919,0.045 6.02192,2.16165 7.0538,10.5463 1.38377,11.22891 0.74083,13.25297 0.29897,13.53079 a 0.81491667,0.81491667 0 0 1 -0.15081,-0.0159 0.26458333,0.26458333 0 0 0 0.0423,0.0317 0.8493125,0.8493125 0 0 1 -0.17728,-0.0317 0.26458333,0.26458333 0 0 0 0.24078,0.0582 0.22489583,0.22489583 0 0 0 0.18256,-0.0212 v 0 a 1.8758958,1.8758958 0 0 0 0.21696,0 q 0,0.15346 -0.0212,0.31486 c -0.0212,0 -0.12965,0.0582 -0.0132,0.0661 v 0 c -0.0344,0.63236 -0.0318,1.32292 0,2.04259 -1.43669,0.0794 -2.87073,0.16404 -4.1275,0.24077 l 0.11113,-0.59267 0.0503,-0.26458 c 1.10331,-0.0873 2.14841,-0.41275 2.27277,-1.30704 0.26458,-1.96586 -2.42888,-3.01361 -4.72282,-3.1459 -2.29393,-0.13229 -16.0602,0.79375 -16.0602,0.79375 0,0 -2.06375,2.67229 4.48204,3.50044 q 0.29104,0.15081 0.6059,0.33073 c 2.56381,1.46314 6.04308,4.15131 7.70995,5.47952 l 0.23284,0.18521 -0.74877,0.59531 c 4.04812,0.9181 7.96131,16.38564 10.12295,23.46325 2.16165,7.0776 6.87917,6.81567 10.79765,5.76792 3.66712,-0.98425 4.13544,-11.64167 4.18042,-12.96459 v -0.13758 l 6.52197,8.04069 0.49478,0.61118 q 0.28575,0.14817 0.56356,0.28046 c 4.93977,2.3495 10.39548,-2.15635 8.84237,-7.28133 -1.56898,-5.1779 -4.00314,-12.82965 -5.62768,-16.06815 -1.35996,-2.70933 -3.1168,-7.20989 -4.18307,-10.03035 a 3.3866667,3.3866667 0 0 0 0.40217,-0.19315 c 0,0 -0.0238,-0.127 -0.0661,-0.35718 l 0.0661,-0.0371 c 0,0 -1.56898,-8.15445 -1.65629,-13.94618 q 0,-0.15346 0,-0.30427 c 0,-0.0635 0,-0.12436 0,-0.18786 1.18004,-0.26458 1.92616,-0.37306 1.92616,-0.37306 l 0.0212,-0.26458 -0.13758,0.0291 0.65616,-7.51152 c 0,0 2.40771,-5.12498 0.56357,-7.26017 a 4.4820417,4.4820417 0 0 1 -1.08215,-2.21721 c -0.30692,-1.9632 0,-5.2361 4.29683,-7.95602 6.61459,-4.19364 9.1784,-7.60148 9.1784,-7.60148 0,0 0.13758,-2.5056 -3.91054,-3.68564 z m -13.13127,5.20964 v -3.47133 c 1.22766,-0.0608 2.47914,0.082 3.70416,0 a 9.3927083,9.3927083 0 0 0 1.79123,-0.29898 l 0.29634,0.20638 a 32.644292,32.644292 0 0 1 -5.79173,3.56393 z m -18.75102,54.40627 c 0.48683,0.33603 0.97366,0.68528 1.45256,1.03453 0.29633,1.71185 0.56092,2.91041 0.57944,3.00566 a 23.730479,23.730479 0 0 0 -2.032,-4.04019 z"
       id="path367" />
    <path
       inkscape:connector-curvature="0"
       style="fill:#ffbdc6;stroke-width:0.26458332"
       d="m 383.77417,-553.52088 -0.28575,1.55045 -0.21696,1.18534 -0.39952,2.16958 -3.8735,2.71198 c 0,0 -0.34925,-0.29633 -0.92604,-0.76994 -1.5875,-1.30704 -4.9239,-3.96875 -7.37394,-5.3975 a 8.2576458,8.2576458 0 0 0 -2.02671,-0.93398 z"
       id="path369" />
    <path
       inkscape:connector-curvature="0"
       style="opacity:0.1;stroke-width:0.26458332"
       d="m 383.77417,-553.52088 -0.28575,1.55045 a 12.035896,12.035896 0 0 1 -2.55588,-0.12964 l -9.03816,0.12964 c -0.42863,-0.0264 -0.82815,-0.0582 -1.20121,-0.0979 a 8.2576458,8.2576458 0 0 0 -2.02671,-0.93398 z"
       id="path371" />
    <path
       inkscape:connector-curvature="0"
       style="fill:#7679b4;stroke-width:0.26458332"
       d="m 380.9299,-552.35936 c 0,0 4.51908,0.77523 4.77573,-1.16152 0.25664,-1.93675 -2.32304,-2.96863 -4.51909,-3.09827 -2.19604,-0.12965 -15.36435,0.77522 -15.36435,0.77522 0,0 -2.32304,3.09828 6.0669,3.61421 z"
       id="path373" />
    <path
       inkscape:connector-curvature="0"
       style="opacity:0.1;stroke-width:0.26458332"
       d="m 383.77417,-553.52088 -0.28575,1.55045 -0.21696,1.18534 -0.39952,2.16958 -3.8735,2.71198 c 0,0 -0.34925,-0.29633 -0.92604,-0.76994 -1.5875,-1.30704 -4.9239,-3.96875 -7.37394,-5.3975 a 8.2576458,8.2576458 0 0 0 -2.02671,-0.93398 z"
       id="path375" />
    <path
       inkscape:connector-curvature="0"
       style="opacity:0.1;stroke-width:0.26458332"
       d="m 383.77417,-553.52088 -0.28575,1.55045 a 12.035896,12.035896 0 0 1 -2.55588,-0.12964 l -9.03816,0.12964 c -0.42863,-0.0264 -0.82815,-0.0582 -1.20121,-0.0979 a 8.2576458,8.2576458 0 0 0 -2.02671,-0.93398 z"
       id="path377" />
    <path
       inkscape:connector-curvature="0"
       style="opacity:0.1;stroke-width:0.26458332"
       d="m 380.9299,-552.35936 c 0,0 4.51908,0.77523 4.77573,-1.16152 0.25664,-1.93675 -2.32304,-2.96863 -4.51909,-3.09827 -2.19604,-0.12965 -15.36435,0.77522 -15.36435,0.77522 0,0 -2.32304,3.09828 6.0669,3.61421 z"
       id="path379" />
    <rect
       style="fill:#a66477;stroke-width:0.26458332"
       x="367.18216"
       y="-616.00757"
       width="23.627293"
       height="28.016729"
       id="rect381" />
    <rect
       style="opacity:0.1;stroke-width:0.26458332"
       x="367.18216"
       y="-616.00757"
       width="23.627293"
       height="28.016729"
       id="rect383" />
    <path
       inkscape:connector-curvature="0"
       style="fill:#ffbdc6;stroke-width:0.26458332"
       d="m 339.48821,-568.04386 c -0.38894,0.0979 -0.88635,0.4736 -1.43933,1.01864 -2.38125,2.35744 -5.79173,7.88988 -5.79173,7.88988 -4.36033,-5.19377 0.45244,-9.29481 2.52148,-10.70769 0.50006,-0.34131 0.83608,-0.52917 0.83608,-0.52917 z"
       id="path385" />
    <path
       inkscape:connector-curvature="0"
       style="fill:#ffbdc6;stroke-width:0.26458332"
       d="m 383.50959,-607.16251 c 0,0 1.16152,8.13329 5.16466,10.07004 4.00315,1.93675 -5.16466,5.55625 -5.16466,5.55625 l -12.52273,-4.64873 c 0,0 7.10141,-2.32304 5.6806,-9.16781 z"
       id="path387" />
    <path
       inkscape:connector-curvature="0"
       style="fill:#ffbdc6;stroke-width:0.26458332"
       d="m 370.08463,-558.23311 -0.28575,1.55046 -0.21696,1.18533 -0.39952,2.16958 -3.8735,2.71198 c 0,0 -0.34925,-0.29633 -0.92604,-0.76994 -1.5875,-1.30704 -4.9239,-3.96875 -7.37394,-5.3975 a 8.2576458,8.2576458 0 0 0 -2.02671,-0.93398 z"
       id="path389" />
    <path
       inkscape:connector-curvature="0"
       style="opacity:0.1;stroke-width:0.26458332"
       d="m 370.08463,-558.23311 -0.28575,1.55046 a 12.035896,12.035896 0 0 1 -2.55588,-0.12965 l -9.03816,0.12965 c -0.42863,-0.0265 -0.82815,-0.0582 -1.20121,-0.0979 a 8.2576458,8.2576458 0 0 0 -2.02671,-0.93398 z"
       id="path391" />
    <path
       inkscape:connector-curvature="0"
       style="fill:#7679b4;stroke-width:0.26458332"
       d="m 367.24565,-557.07159 c 0,0 4.51908,0.77523 4.77573,-1.16152 0.25664,-1.93675 -2.32304,-2.96863 -4.51909,-3.09827 -2.19604,-0.12965 -15.36435,0.77523 -15.36435,0.77523 0,0 -2.32304,3.09827 6.0669,3.6142 z"
       id="path393" />
    <path
       inkscape:connector-curvature="0"
       style="opacity:0.1;stroke-width:0.26458332"
       d="m 369.58192,-555.49468 -0.39952,2.16959 -3.8735,2.71198 c 0,0 -0.34925,-0.29634 -0.92604,-0.76994 l 5.12233,-4.20158 z"
       id="path395" />
    <path
       inkscape:connector-curvature="0"
       style="fill:#00ccff;fill-opacity:1;stroke-width:0.26458332"
       d="m 395.15125,-525.93807 q -0.26458,-0.12965 -0.52916,-0.26458 l -0.47361,-0.60061 -6.24681,-7.93221 v 0.13494 c -0.0423,1.32292 -0.48948,11.80571 -3.99786,12.77408 -3.74385,1.03188 -8.26293,1.29117 -10.31875,-5.6806 -2.05581,-6.97177 -5.82083,-22.20648 -9.68374,-23.10871 l 5.7441,-4.71223 c 0,0 3.80471,4.45029 5.35781,8.71009 -0.0582,-0.26459 -2.68552,-12.5439 -0.51594,-14.71348 h 18.83834 c 0,0 2.91041,8.28675 4.90537,12.39308 1.55311,3.18823 3.88409,10.72621 5.38427,15.82737 1.48432,5.04825 -3.73327,9.48796 -8.46402,7.17286 z"
       id="path397" />
    <path
       inkscape:connector-curvature="0"
       style="opacity:0.1;stroke-width:0.26458332"
       d="m 394.62209,-559.00834 c -2.91042,1.72244 -15.68715,1.02129 -19.84375,0.74083 l -1.12978,-0.082 c -0.1217,0 0.0185,-0.0688 0.0185,-0.0688 l 0.11641,-1.17211 3.09827,-7.87664 16.58938,-9.61761 c -0.33602,1.01336 -0.44979,2.56382 -0.42334,4.33917 0.0661,5.70706 1.57428,13.73717 1.57428,13.73717 z"
       id="path399" />
    <path
       inkscape:connector-curvature="0"
       style="fill:#0fcfc0;fill-opacity:1;stroke-width:0.26458332"
       d="m 394.62209,-559.39463 c -2.91042,1.72243 -15.68715,1.02129 -19.84375,0.74083 l -1.12978,-0.082 -0.18785,-0.0132 0.20638,-0.0529 1.01864,-0.26458 2.19604,-8.77888 16.58938,-9.6176 c -0.33602,1.01335 -0.44979,2.56381 -0.42334,4.33917 0.0661,5.69912 1.57428,13.72923 1.57428,13.72923 z"
       id="path401" />
    <path
       inkscape:connector-curvature="0"
       style="opacity:0.1;stroke-width:0.26458332"
       d="m 393.03459,-573.12915 c -3.37344,0.77787 -10.79765,3.06122 -13.64986,8.5725 -1.90235,3.67241 -3.50308,5.24668 -4.61962,5.9055 l -1.12977,-0.082 0.0185,-0.0688 1.01864,-0.26458 2.19604,-8.77888 16.58938,-9.6176 c -0.34131,1.00542 -0.45244,2.55588 -0.42333,4.33388 z"
       id="path403" />
    <path
       inkscape:connector-curvature="0"
       style="opacity:0.1;stroke-width:0.26458332"
       d="m 335.62,-570.36955 3.8735,2.32304 c -0.38893,0.0979 -0.88635,0.47361 -1.43933,1.01865 -0.32279,-0.94192 -2.35215,-2.2569 -3.27025,-2.81517 0.49477,-0.34131 0.83608,-0.52652 0.83608,-0.52652 z"
       id="path405" />
    <path
       inkscape:connector-curvature="0"
       style="opacity:0.1;stroke-width:0.26458332"
       d="m 372.93948,-558.58236 a 0.2301875,0.2301875 0 0 1 -0.26458,-0.037 0.93133333,0.93133333 0 0 0 0.26458,0.037 z"
       id="path407" />
    <path
       inkscape:connector-curvature="0"
       style="fill:#00ccff;fill-opacity:1;stroke-width:0.26458332"
       d="m 381.70513,-597.6084 c 0,0 -3.48457,0.38629 -5.9399,-2.19605 0,0 -10.31875,2.96863 -13.81389,9.68375 -3.49515,6.71513 -27.25209,19.88344 -27.25209,19.88344 0,0 4.13015,2.32304 3.74386,3.48456 l 15.61041,-9.03816 c 0,0 5.55625,-4.00315 7.10142,-4.90538 1.54517,-0.90223 10.07004,-6.45583 11.87715,8.64923 1.8071,15.10506 0,13.29796 0,13.29796 0,0 2.58233,0.90487 6.32618,-6.32619 3.74386,-7.23106 15.38552,-8.91116 15.38552,-8.91116 l 0.64559,-7.61736 c 0,0 2.30452,-5.04825 0.52916,-7.14375 a 4.4688125,4.4688125 0 0 1 -1.03452,-2.18546 c -0.29368,-1.9341 0,-5.15673 4.10898,-7.83431 6.32619,-4.13015 8.77888,-7.48771 8.77888,-7.48771 0,0 0.12964,-2.45269 -3.74386,-3.61421 -3.8735,-1.16152 -19.62414,-7.4877 -19.62414,-7.4877 l -0.52917,2.19604 12.39308,8.77887 c 0,0 -6.19654,5.02709 -11.1125,4.90538 0.037,-0.005 0.93927,3.73856 -3.45016,3.86821 z"
       id="path409" />
    <path
       inkscape:connector-curvature="0"
       style="opacity:0.1;stroke-width:0.26458332"
       d="m 384.09696,-603.61974 a 25.373542,25.373542 0 0 1 -0.71437,-3.15383 l -6.84213,1.8071 a 7.5432708,7.5432708 0 0 1 -0.1561,3.94759 7.3580625,7.3580625 0 0 0 7.7126,-2.60086 z"
       id="path411" />
    <circle
       style="fill:#ffbdc6;stroke-width:0.26458332"
       cx="378.41373"
       cy="-608.51984"
       r="7.3580623"
       id="circle413" />
    <path
       inkscape:connector-curvature="0"
       style="opacity:0.1;stroke-width:0.26458332"
       d="m 382.3269,-625.25207 c 2.04258,0.23019 3.98462,1.1086 5.99281,1.5875 a 2.9606875,2.9606875 0 0 0 1.55046,0.0582 c 0.79375,-0.24077 1.41552,-1.05834 2.22514,-1.03452 0.50007,0.0159 0.93928,0.35454 1.34938,0.67998 a 16.203083,16.203083 0 0 1 1.85208,1.651 c 1.38642,1.50547 2.24632,3.53218 3.51367,5.16995 1.26735,1.63777 3.25967,2.91042 5.05619,2.159 -1.22238,4.7625 -5.22552,8.38994 -9.55675,8.68627 -1.72773,0.11907 -3.49779,-0.24341 -5.16996,0.26459 a 4.5270208,4.5270208 0 0 1 -1.3044,0.3175 c -0.96308,0 -1.73831,-0.88371 -2.33891,-1.74361 -1.40759,-2.02141 -2.52148,-4.31535 -4.10634,-6.1595 -0.52916,-0.60854 -1.14035,-1.18798 -1.88118,-1.2991 -0.74084,-0.11113 -1.42082,0.24077 -2.07963,0.58208 -1.08744,0.56357 -2.20133,1.14565 -3.04271,2.11667 -0.84137,0.97102 -1.37319,2.40771 -1.02658,3.70417 0.18785,0.70379 0.61648,1.33879 0.62442,2.07433 0.0132,1.1721 -1.0213,2.032 -1.22767,3.175 a 12.234333,12.234333 0 0 0 -0.0503,1.44462 c -0.09,1.56634 -1.1139,2.84957 -2.18281,3.83382 -0.4154,0.38364 -0.87578,0.79375 -0.99748,1.38377 -0.082,0.40481 0,0.83079 -0.0529,1.24089 -0.1561,1.016 -1.16946,1.53194 -2.0664,1.66423 a 5.9901667,5.9901667 0 0 1 -3.10091,-0.36777 c 1.25412,-0.59531 2.02406,-2.28071 1.73566,-3.79412 -0.39952,-2.0955 -2.5056,-3.59834 -2.32833,-5.73352 a 6.6331042,6.6331042 0 0 1 0.58209,-1.88648 17.258771,17.258771 0 0 0 0.99747,-3.57452 c 0.15611,-0.94457 0.23284,-1.94734 -0.0608,-2.84957 -0.26458,-0.8202 -0.81756,-1.47373 -1.28587,-2.16693 a 12.305771,12.305771 0 0 1 -1.48167,-3.04536 2.1378333,2.1378333 0 0 1 -0.14288,-1.01071 2.0902083,2.0902083 0 0 1 0.64823,-1.0451 c 1.15359,-1.20915 2.38125,-2.46856 3.92377,-2.81252 a 8.8000417,8.8000417 0 0 1 2.22779,-0.0847 26.069396,26.069396 0 0 0 3.87086,-0.16404 c 1.05833,-0.12435 2.84691,-0.10583 3.7465,-0.79375 0.83608,-0.64294 1.30439,-1.44462 2.33627,-1.85208 a 6.8368333,6.8368333 0 0 1 3.25173,-0.37571 z"
       id="path415" />
    <path
       inkscape:connector-curvature="0"
       style="opacity:0.1;stroke-width:0.26458332"
       d="m 386.42,-549.25845 c 0,0 4.25979,8.39259 2.96863,10.97492"
       id="path417" />
    <path
       inkscape:connector-curvature="0"
       style="opacity:0.1;stroke-width:0.26458332"
       d="m 394.14319,-526.81649 -6.24152,-7.91898 v 0.13494 c 0,0 -0.35983,-2.56117 0.82814,-1.70127 2.6035,1.88383 6.76805,4.97152 6.858,5.50333 0.09,0.53182 -0.84402,2.667 -1.44462,3.98198 z"
       id="path419" />
    <g
       transform="matrix(0.26458333,0,0,0.26458333,264.85984,-694.37182)"
       style="opacity:0.1"
       id="g433">
      <path
         inkscape:connector-curvature="0"
         d="m 586.84,386.08 c 0,0 2,8.24 -4.45,12.36 9.9,-1.7 10.34,-9.4 10,-12.75 a 31.23,31.23 0 0 1 -5.55,0.39 z"
         transform="translate(-131.56,-35)"
         id="path421" />
      <path
         inkscape:connector-curvature="0"
         d="m 401.42,502.21 c 0,0 89.78,-49.77 103,-75.15 9.45,-18.21 32.23,-29.13 44.34,-33.85 -8.83,3 -38.54,14.3 -49.7,35.8 -13.17,25.37 -103,75.15 -103,75.15 z"
         transform="translate(-131.56,-35)"
         id="path423" />
      <path
         inkscape:connector-curvature="0"
         d="m 604.29,382.2 c 15.28,-4.75 29.88,-16.62 29.88,-16.62 l -46.84,-33.18 1.07,-4.55 -4.49,-1.79 -2,8.3 46.84,33.18 a 113,113 0 0 1 -24.46,14.66 z"
         transform="translate(-131.56,-35)"
         id="path425" />
      <path
         inkscape:connector-curvature="0"
         d="M 604.59,494.65 A 116.07,116.07 0 0 1 623,490 l 0.08,-0.94 a 124.31,124.31 0 0 0 -18.49,5.59 z"
         transform="translate(-131.56,-35)"
         id="path427" />
      <path
         inkscape:connector-curvature="0"
         d="m 547.81,545.77 h -0.43 a 0.88,0.88 0 0 1 -1,-0.14 3.64,3.64 0 0 0 1,0.14 c 1.6,-0.93 4,-8.22 -1,-50.4 -5.39,-45 -26.55,-41.49 -38.13,-36.31 11.84,-3.26 28.13,-0.44 32.76,38.26 5,42.18 2.64,49.46 1,50.4 a 10.82,10.82 0 0 0 5.8,-1.95 z"
         transform="translate(-131.56,-35)"
         id="path429" />
      <path
         inkscape:connector-curvature="0"
         d="m 542,547.73 a 3.64,3.64 0 0 1 -1,-0.14 0.88,0.88 0 0 0 1,0.14 z"
         transform="translate(-131.56,-35)"
         id="path431" />
    </g>
    <path
       inkscape:connector-curvature="0"
       style="fill:#a66477;stroke-width:0.26458332"
       d="m 382.3269,-625.51136 c 2.04258,0.23018 3.98462,1.1086 5.99281,1.5875 a 2.9606875,2.9606875 0 0 0 1.55046,0.0582 c 0.79375,-0.24078 1.41552,-1.05834 2.22514,-1.03453 0.50007,0.0159 0.93928,0.35455 1.34938,0.67998 a 16.203083,16.203083 0 0 1 1.85208,1.651 c 1.38642,1.50548 2.24632,3.53219 3.51367,5.16996 1.26735,1.63777 3.25967,2.91042 5.05619,2.159 -1.22238,4.7625 -5.22552,8.38994 -9.55675,8.68627 -1.72773,0.11907 -3.49779,-0.24341 -5.16996,0.26459 a 4.5270208,4.5270208 0 0 1 -1.3044,0.3175 c -0.96308,0 -1.73831,-0.88371 -2.33891,-1.74361 -1.40759,-2.02141 -2.52148,-4.31535 -4.10634,-6.1595 -0.52916,-0.60854 -1.14035,-1.18798 -1.88118,-1.2991 -0.74084,-0.11113 -1.42082,0.24077 -2.07963,0.58208 -1.08744,0.56356 -2.20133,1.14565 -3.04271,2.11667 -0.84137,0.97102 -1.37319,2.40771 -1.02658,3.70416 0.18785,0.7038 0.61648,1.3388 0.62442,2.07434 0.0132,1.1721 -1.0213,2.032 -1.22767,3.175 a 12.234333,12.234333 0 0 0 -0.0503,1.44462 c -0.09,1.56634 -1.1139,2.84957 -2.18281,3.83382 -0.4154,0.38364 -0.87578,0.79375 -0.99748,1.38377 -0.082,0.40481 0,0.83079 -0.0529,1.24089 -0.1561,1.016 -1.16946,1.53194 -2.0664,1.66423 a 5.9901667,5.9901667 0 0 1 -3.10091,-0.36777 c 1.25412,-0.59531 2.02406,-2.28071 1.73566,-3.79412 -0.39952,-2.0955 -2.5056,-3.59834 -2.32833,-5.73353 a 6.6331042,6.6331042 0 0 1 0.58209,-1.88647 17.258771,17.258771 0 0 0 0.99747,-3.57453 c 0.15611,-0.94456 0.23284,-1.94733 -0.0608,-2.84956 -0.26458,-0.82021 -0.81756,-1.47373 -1.28587,-2.16694 a 12.305771,12.305771 0 0 1 -1.48167,-3.05064 2.1378333,2.1378333 0 0 1 -0.14288,-1.01071 2.0902083,2.0902083 0 0 1 0.64823,-1.0451 c 1.15359,-1.20915 2.38125,-2.46857 3.92377,-2.81252 a 8.8000417,8.8000417 0 0 1 2.22779,-0.0847 26.069396,26.069396 0 0 0 3.87086,-0.16404 c 1.05833,-0.12436 2.84691,-0.10584 3.7465,-0.79375 0.83608,-0.64294 1.30439,-1.44463 2.33627,-1.85209 a 6.8368333,6.8368333 0 0 1 3.25173,-0.37041 z"
       id="path435" />
  </g>
</svg>
